<?xml version="1.0" encoding="UTF-8" standalone="no"?>
<!-- Created with Inkscape (http://www.inkscape.org/) -->

<svg
   version="1.1"
   id="svg1"
   width="816"
   height="1056"
   viewBox="0 0 816 1056"
   sodipodi:docname="abc-circuit-board-blue.svg"
   inkscape:version="1.3.2 (091e20e, 2023-11-25, custom)"
   xmlns:inkscape="http://www.inkscape.org/namespaces/inkscape"
   xmlns:sodipodi="http://sodipodi.sourceforge.net/DTD/sodipodi-0.dtd"
   xmlns="http://www.w3.org/2000/svg"
   xmlns:svg="http://www.w3.org/2000/svg">
  <defs
     id="defs1">
    <clipPath
       clipPathUnits="userSpaceOnUse"
       id="clipPath3">
      <path
         d="M -7.629e-6,1.2207e-4 H 611.99999 V 792.00012 H -7.629e-6 Z"
         clip-rule="evenodd"
         id="path3" />
    </clipPath>
    <clipPath
       clipPathUnits="userSpaceOnUse"
       id="clipPath4">
      <path
         d="m 75.12,645.72 h 381.84 v 58.2 H 75.12 Z"
         transform="matrix(1,0,0,-1,-72.024002,646.18001)"
         clip-rule="evenodd"
         id="path4" />
    </clipPath>
  </defs>
  <sodipodi:namedview
     id="namedview1"
     pagecolor="#ffffff"
     bordercolor="#000000"
     borderopacity="0.25"
     inkscape:showpageshadow="2"
     inkscape:pageopacity="0.0"
     inkscape:pagecheckerboard="0"
     inkscape:deskcolor="#d1d1d1"
     inkscape:zoom="0.74526515"
     inkscape:cx="408.57942"
     inkscape:cy="528"
     inkscape:window-width="1920"
     inkscape:window-height="1001"
     inkscape:window-x="-9"
     inkscape:window-y="-9"
     inkscape:window-maximized="1"
     inkscape:current-layer="g1">
    <inkscape:page
       x="0"
       y="0"
       inkscape:label="1"
       id="page1"
       width="816"
       height="1056"
       margin="0"
       bleed="0" />
  </sodipodi:namedview>
  <g
     id="g1"
     inkscape:groupmode="layer"
     inkscape:label="1">
    <g
       id="g2">
      <path
         id="path2"
         d="m 87.552,668.88 v -10.73 h 8.098 l 2.702,2.64 v 5.4 l -2.63,2.69 z m 228.958,22.68 v -10.73 h 8.08 l 2.72,2.72 v 5.43 l -2.7,2.58 z m -228.958,0 v -10.73 h 8.153 l 3.468,2.62 -0.821,-0.22 v 5.7 l -2.692,2.63 z m 336.698,11.95 h 32.31 v -11.48 l -18.58,-33.95 h 18.3 V 646.2 h -32.03 l 0.22,11.41 18.64,33.88 h -18.86 z m -60.36,0 H 376 l 5.77,-28.75 5.69,28.75 h 12.2 L 387.29,646.2 h -11.04 z m -59.4,0 h 25.61 l 9.24,-9.16 v -15.93 l -7.77,-7.92 6.64,-24.3 h -12.3 l -6.29,22.68 h -3.11 V 646.2 h -12.02 z m -59.04,0 h 11.64 l 10.89,-27.33 v 27.33 h 12.03 V 646.2 h -11.56 l -10.98,27.48 V 646.2 h -12.02 z m -36.63,0 h 12.03 v -48.13 l -9.17,-9.18 h -13.61 l -9.24,9.15 v 9.86 h 12.11 v -4.43 l 2.63,-2.63 h 2.61 l 2.64,2.64 z m -73.89,0 h 29.54 v -11.95 h -17.52 v -10.73 h 8.69 v -11.95 h -8.69 V 646.2 h -12.02 z m -59.402,0 h 25.612 l 9.16,-9.16 v -16.3 l -3.46,-3.2 3.46,-3.26 v -15.91 l -9.17,-9.48 H 75.528 Z"
         style="fill:#ffffff;fill-opacity:1;fill-rule:evenodd;stroke:#000000;stroke-width:0.8;stroke-linecap:butt;stroke-linejoin:round;stroke-miterlimit:10;stroke-dasharray:none;stroke-opacity:1"
         transform="matrix(1.3333333,0,0,-1.3333333,0,1056)"
         clip-path="url(#clipPath3)" />
    </g>
    <g
       id="g3">
      <text
         id="text3"
         xml:space="preserve"
         transform="matrix(1.3333333,0,0,1.3333333,96.032,194.42667)"
         clip-path="url(#clipPath4)"><tspan
           style="font-variant:normal;font-weight:normal;font-size:72px;font-family:'High School USA Sans';writing-mode:lr-tb;fill:#000000;fill-opacity:0;fill-rule:nonzero;stroke:#000000;stroke-width:2.0571;stroke-linecap:butt;stroke-linejoin:miter;stroke-miterlimit:10;stroke-dasharray:none;stroke-opacity:0"
           x="0 41.183998 59.183998 95.183998 113.184 151.56 169.776 210.744 228.744 270.14401 288.14401 330.336 348.336"
           y="0"
           sodipodi:role="line"
           id="tspan3">B F J N R V Z</tspan></text>
    </g>
  </g>
</svg>
