<?xml version="1.0" encoding="UTF-8" standalone="no"?>
<!-- Created with Inkscape (http://www.inkscape.org/) -->

<svg
   version="1.1"
   id="svg1"
   width="816"
   height="1056"
   viewBox="0 0 816 1056"
   sodipodi:docname="abc-circuit-board-purple.svg"
   inkscape:version="1.3.2 (091e20e, 2023-11-25, custom)"
   xmlns:inkscape="http://www.inkscape.org/namespaces/inkscape"
   xmlns:sodipodi="http://sodipodi.sourceforge.net/DTD/sodipodi-0.dtd"
   xmlns="http://www.w3.org/2000/svg"
   xmlns:svg="http://www.w3.org/2000/svg">
  <defs
     id="defs1">
    <clipPath
       clipPathUnits="userSpaceOnUse"
       id="clipPath3">
      <path
         d="M -7.629e-6,1.2207e-4 H 611.99999 V 792.00012 H -7.629e-6 Z"
         clip-rule="evenodd"
         id="path3" />
    </clipPath>
    <clipPath
       clipPathUnits="userSpaceOnUse"
       id="clipPath4">
      <path
         d="M 75.12,645.72 H 417 v 58.2 H 75.12 Z"
         transform="matrix(1,0,0,-1,-72.024002,646.18001)"
         clip-rule="evenodd"
         id="path4" />
    </clipPath>
  </defs>
  <sodipodi:namedview
     id="namedview1"
     pagecolor="#ffffff"
     bordercolor="#000000"
     borderopacity="0.25"
     inkscape:showpageshadow="2"
     inkscape:pageopacity="0.0"
     inkscape:pagecheckerboard="0"
     inkscape:deskcolor="#d1d1d1"
     inkscape:zoom="0.74526515"
     inkscape:cx="408.57942"
     inkscape:cy="528"
     inkscape:window-width="1920"
     inkscape:window-height="1001"
     inkscape:window-x="-9"
     inkscape:window-y="-9"
     inkscape:window-maximized="1"
     inkscape:current-layer="g1">
    <inkscape:page
       x="0"
       y="0"
       inkscape:label="1"
       id="page1"
       width="816"
       height="1056"
       margin="0"
       bleed="0" />
  </sodipodi:namedview>
  <g
     id="g1"
     inkscape:groupmode="layer"
     inkscape:label="1">
    <g
       id="g2">
      <path
         id="path2"
         d="m 268.48,691.56 -2.68,-2.62 v -28.16 l 2.69,-2.63 h 5.46 l 2.65,2.65 V 689 l -2.62,2.56 z m 103.93,11.95 h 11.97 l 2.26,-25.57 5.77,25.57 h 4.09 l 5.83,-25.5 2.21,25.5 h 12.04 l -5.65,-57.31 h -11.87 l -4.6,19.64 -4.53,-19.64 h -11.87 z m -50.25,0 h 16.46 l 9.16,-9.15 v -9.78 h -11.95 v 4.41 l -2.7,2.57 h -5.47 l -2.63,-2.63 v -5.41 l 2.63,-2.69 h 10.96 l 9.16,-9.16 v -16.3 l -9.17,-9.17 h -16.44 l -9.16,9.15 v 9.86 h 12.02 v -4.43 l 2.64,-2.63 h 5.46 l 2.7,2.64 v 5.46 l -2.69,2.63 h -10.89 l -9.24,9.23 v 16.25 z m -59.16,0 h 16.39 l 9.23,-9.16 v -38.67 l -9.24,-9.48 h -16.37 l -9.16,9.16 v 39 z m -68.67,0 h 12.02 v -17.59 l 8.94,17.59 h 13.38 l -9.11,-16.65 9.61,-40.66 h -12.18 l -6.06,26.56 -4.58,-9.14 V 646.2 h -12.02 z m -50.18,0 h 16.46 l 9.17,-9.15 v -9.86 h -12.03 v 4.43 l -2.64,2.63 h -5.46 l -2.63,-2.62 v -28.15 l 2.64,-2.64 h 5.44 l 2.65,2.65 v 3.69 h -7.34 v 11.95 h 19.37 v -21.07 l -9.18,-9.17 h -16.44 l -9.23,9.16 v 39 z m -59.469,0 h 16.459 l 9.24,-9.15 V 684.5 H 98.352 v 4.44 l -2.692,2.62 h -5.482 l -2.626,-2.62 v -28.15 l 2.636,-2.64 h 5.462 l 2.702,2.64 v 4.42 h 12.028 v -9.85 l -9.25,-9.16 H 84.691 l -9.163,9.16 v 39 z"
         style="fill:#ffffff;fill-opacity:1;fill-rule:evenodd;stroke:#000000;stroke-width:0.8;stroke-linecap:butt;stroke-linejoin:round;stroke-miterlimit:10;stroke-dasharray:none;stroke-opacity:1"
         transform="matrix(1.3333333,0,0,-1.3333333,0,1056)"
         clip-path="url(#clipPath3)" />
    </g>
    <g
       id="g3">
      <text
         id="text3"
         xml:space="preserve"
         transform="matrix(1.3333333,0,0,1.3333333,96.032,194.42667)"
         clip-path="url(#clipPath4)"><tspan
           style="font-variant:normal;font-weight:normal;font-size:72px;font-family:'High School USA Sans';writing-mode:lr-tb;fill:#000000;fill-opacity:0;fill-rule:nonzero;stroke:#000000;stroke-width:2.0571;stroke-linecap:butt;stroke-linejoin:miter;stroke-miterlimit:10;stroke-dasharray:none;stroke-opacity:0"
           x="0 41.256001 59.256001 100.728 118.728 159.98399 178.2 219.384 237.384 278.56799 296.56799"
           y="0"
           sodipodi:role="line"
           id="tspan3">C G K O S W</tspan></text>
    </g>
  </g>
</svg>
